<?xml version="1.0" encoding="UTF-8" standalone="no"?><svg xmlns="http://www.w3.org/2000/svg" xmlns:xlink="http://www.w3.org/1999/xlink" contentScriptType="application/ecmascript" contentStyleType="text/css" height="569px" preserveAspectRatio="none" style="width:697px;height:569px;" version="1.1" viewBox="0 0 697 569" width="697px" zoomAndPan="magnify"><defs><filter height="300%" id="f9erkvnwzds8z" width="300%" x="-1" y="-1"><feGaussianBlur result="blurOut" stdDeviation="2.0"/><feColorMatrix in="blurOut" result="blurOut2" type="matrix" values="0 0 0 0 0 0 0 0 0 0 0 0 0 0 0 0 0 0 .4 0"/><feOffset dx="4.0" dy="4.0" in="blurOut2" result="blurOut3"/><feBlend in="SourceGraphic" in2="blurOut3" mode="normal"/></filter></defs><g><!--MD5=[2219b76f6ffe160e0f458b66e9ec6ce6]
cluster 评测系统--><rect fill="#FFFFFF" filter="url(#f9erkvnwzds8z)" height="260.5" style="stroke: #000000; stroke-width: 1.5;" width="580" x="106" y="184.5"/><path d="M172,185.5 L172,195.1094 L162,205.1094 L106,205.1094 " fill="none" style="stroke: #000000; stroke-width: 1.5;"/><text fill="#000000" font-family="sans-serif" font-size="14" font-weight="bold" lengthAdjust="spacingAndGlyphs" textLength="56" x="109" y="200.0332">评测系统</text><!--MD5=[f278101153e2de1c34234ec841828d82]
entity judger--><polygon fill="#FEFECE" filter="url(#f9erkvnwzds8z)" points="326,391,336,381,408,381,408,418.6094,398,428.6094,326,428.6094,326,391" style="stroke: #000000; stroke-width: 1.5;"/><line style="stroke: #000000; stroke-width: 1.5;" x1="398" x2="407" y1="391" y2="382"/><line style="stroke: #000000; stroke-width: 1.5;" x1="326" x2="398" y1="391" y2="391"/><line style="stroke: #000000; stroke-width: 1.5;" x1="398" x2="398" y1="391" y2="428.6094"/><text fill="#000000" font-family="sans-serif" font-size="14" lengthAdjust="spacingAndGlyphs" textLength="42" x="341" y="415.5332">评测机</text><!--MD5=[ebc9fc8a35257e1c6a027ae1f176e6ce]
entity judgerbackend--><ellipse cx="277" cy="236.5" fill="#FEFECE" filter="url(#f9erkvnwzds8z)" rx="12" ry="12" style="stroke: #A80036; stroke-width: 2.0;"/><polygon fill="#A80036" points="273,224.5,279,219.5,277,224.5,279,229.5,273,224.5" style="stroke: #A80036; stroke-width: 1.0;"/><text fill="#000000" font-family="sans-serif" font-size="14" lengthAdjust="spacingAndGlyphs" textLength="70" x="242" y="267.0332">评测控制端</text><!--MD5=[791e9a50e8060f635b8d75367e922f94]
entity webbackend--><path d="M256.5,12.5 L256.5,36.5 M256.5,24.5 L273.5,24.5 " fill="none" filter="url(#f9erkvnwzds8z)" style="stroke: #A80036; stroke-width: 2.0;"/><ellipse cx="285.5" cy="24.5" fill="#FEFECE" filter="url(#f9erkvnwzds8z)" rx="12" ry="12" style="stroke: #A80036; stroke-width: 2.0;"/><text fill="#000000" font-family="sans-serif" font-size="14" lengthAdjust="spacingAndGlyphs" textLength="56" x="249" y="55.0332">客户系统</text><!--MD5=[fd7812b5a8b223ec3b022b3e68fe4599]
entity oss--><path d="M346.5,513 L346.5,537 M346.5,525 L363.5,525 " fill="none" filter="url(#f9erkvnwzds8z)" style="stroke: #A80036; stroke-width: 2.0;"/><ellipse cx="375.5" cy="525" fill="#FEFECE" filter="url(#f9erkvnwzds8z)" rx="12" ry="12" style="stroke: #A80036; stroke-width: 2.0;"/><text fill="#000000" font-family="sans-serif" font-size="14" lengthAdjust="spacingAndGlyphs" textLength="84" x="325" y="555.5332">题目文件存储</text><!--MD5=[8244371246da6e8a77886c5dbe262e99]
entity statususer--><ellipse cx="48" cy="213.5" fill="#FEFECE" filter="url(#f9erkvnwzds8z)" rx="8" ry="8" style="stroke: #A80036; stroke-width: 1.5;"/><path d="M48,221.5 L48,248.5 M35,229.5 L61,229.5 M48,248.5 L35,263.5 M48,248.5 L61,263.5 " fill="none" filter="url(#f9erkvnwzds8z)" style="stroke: #A80036; stroke-width: 1.5;"/><text fill="#000000" font-family="sans-serif" font-size="14" lengthAdjust="spacingAndGlyphs" textLength="84" x="6" y="283.5332">状态观察用户</text><!--MD5=[68756531e407ff2ed9b7136e209f2df0]
link webbackend to judgerbackend--><path d="M281.678,58.569 C284.729,75.528 288.427,98.809 290,119.5 C292.486,152.201 287.571,189.593 283.089,214.895 " fill="none" id="webbackend-&gt;judgerbackend" style="stroke: #A80036; stroke-width: 1.0;"/><polygon fill="#A80036" points="282.142,220.105,287.6874,211.9657,283.0364,215.1857,279.8165,210.5346,282.142,220.105" style="stroke: #A80036; stroke-width: 1.0;"/><text fill="#000000" font-family="sans-serif" font-size="13" lengthAdjust="spacingAndGlyphs" textLength="52" x="292" y="133.9951">评测指令</text><!--MD5=[bd14be7a2accfc941956f07dfbeb02ea]
link judgerbackend to webbackend--><path d="M253.246,220.121 C235.275,199.862 212.036,169.302 202,137.5 C191.932,105.594 219.941,75.435 244.548,56.097 " fill="none" id="judgerbackend-&gt;webbackend" style="stroke: #A80036; stroke-width: 1.0;"/><polygon fill="#A80036" points="248.776,52.851,239.2014,55.1589,244.81,55.8958,244.0731,61.5045,248.776,52.851" style="stroke: #A80036; stroke-width: 1.0;"/><text fill="#000000" font-family="sans-serif" font-size="13" lengthAdjust="spacingAndGlyphs" textLength="78" x="203" y="133.9951">返回评测结果</text><!--MD5=[421232e754debf6043e9dd7755be53a2]
reverse link statususer to judgerbackend--><path d="M95.2071,245.5 C138.729,245.5 202.358,245.5 241.646,245.5 " fill="none" id="statususer&lt;-judgerbackend" style="stroke: #A80036; stroke-width: 1.0;"/><polygon fill="#A80036" points="90.0021,245.5,99.0021,249.5,95.0021,245.5,99.0021,241.5,90.0021,245.5" style="stroke: #A80036; stroke-width: 1.0;"/><text fill="#000000" font-family="sans-serif" font-size="13" lengthAdjust="spacingAndGlyphs" textLength="104" x="114" y="238.9951">评测系统运行状态</text><!--MD5=[f3892a8cf83a96feb17d597ecc5a0546]
link judgerbackend to judger--><path d="M241.927,258.45 C195.554,276.137 123.111,311.483 154,351 C174.275,376.938 264.212,392.006 320.54,399.062 " fill="none" id="judgerbackend-&gt;judger" style="stroke: #A80036; stroke-width: 1.0;"/><polygon fill="#A80036" points="325.545,399.679,317.1018,394.6082,320.5825,399.0674,316.1233,402.5482,325.545,399.679" style="stroke: #A80036; stroke-width: 1.0;"/><text fill="#000000" font-family="sans-serif" font-size="13" lengthAdjust="spacingAndGlyphs" textLength="78" x="155" y="339.4951">发放评测指令</text><!--MD5=[f3892a8cf83a96feb17d597ecc5a0546]
link judgerbackend to judger--><path d="M269.472,270.673 C264,293.07 259.774,326.519 274,351 C284.241,368.624 302.78,380.876 320.625,389.123 " fill="none" id="judgerbackend-&gt;judger-1" style="stroke: #A80036; stroke-width: 1.0;"/><polygon fill="#A80036" points="325.633,391.344,319.0279,384.0383,321.0625,389.3166,315.7841,391.3511,325.633,391.344" style="stroke: #A80036; stroke-width: 1.0;"/><text fill="#000000" font-family="sans-serif" font-size="13" lengthAdjust="spacingAndGlyphs" textLength="77" x="305.5" y="331.4951">发放文件URL</text><text fill="#000000" font-family="sans-serif" font-size="13" lengthAdjust="spacingAndGlyphs" textLength="138" x="275" y="347.8467">(少数文件直接发放内容)</text><!--MD5=[f3bd5c8b8fe2b05df9d3cdf883aeffe2]
link judger to judgerbackend--><path d="M395.355,380.929 C413.461,363.293 431.255,338.446 418,317 C396.126,281.607 350.508,263.388 317.06,254.427 " fill="none" id="judger-&gt;judgerbackend" style="stroke: #A80036; stroke-width: 1.0;"/><polygon fill="#A80036" points="312.218,253.171,319.9251,259.303,317.0578,254.4267,321.9341,251.5594,312.218,253.171" style="stroke: #A80036; stroke-width: 1.0;"/><text fill="#000000" font-family="sans-serif" font-size="13" lengthAdjust="spacingAndGlyphs" textLength="78" x="423" y="339.4951">返回评测结果</text><!--MD5=[f3bd5c8b8fe2b05df9d3cdf883aeffe2]
link judger to judgerbackend--><path d="M408.207,396.058 C460.56,384.081 540.655,358.303 510,317 C486.91,285.889 377.38,263.179 317.07,252.795 " fill="none" id="judger-&gt;judgerbackend-1" style="stroke: #A80036; stroke-width: 1.0;"/><polygon fill="#A80036" points="312.103,251.948,320.3033,257.4029,317.032,252.7878,321.647,249.5165,312.103,251.948" style="stroke: #A80036; stroke-width: 1.0;"/><text fill="#000000" font-family="sans-serif" font-size="13" lengthAdjust="spacingAndGlyphs" textLength="91" x="517" y="339.4951">返回评测机状态</text><!--MD5=[0221ef9892bbfc624f8241194b3a22e4]
link judger to oss--><path d="M367,429.294 C367,450.243 367,481.1096 367,503.7213 " fill="none" id="judger-&gt;oss" style="stroke: #A80036; stroke-width: 1.0;"/><polygon fill="#A80036" points="367,508.991,371,499.991,367,503.991,363,499.991,367,508.991" style="stroke: #A80036; stroke-width: 1.0;"/><text fill="#000000" font-family="sans-serif" font-size="13" lengthAdjust="spacingAndGlyphs" textLength="52" x="368" y="475.4951">访问文件</text><!--MD5=[1ea0b636bd96da15fb93d95fc89c251a]
@startuml
boundary "客户系统" as webbackend
boundary "题目文件存储" as oss
actor "状态观察用户" as statususer
frame "评测系统" {
  node "评测机" as judger
  control "评测控制端" as judgerbackend
}
webbackend - - -> judgerbackend : 评测指令
statususer <-r- - judgerbackend : 评测系统运行状态
judgerbackend - -> judger : 发放评测指令
judgerbackend - -> judger : 发放文件URL\n(少数文件直接发放内容)
judger - -> oss : 访问文件
judgerbackend - -> webbackend : 返回评测结果
judger - -> judgerbackend : 返回评测结果
judger - -> judgerbackend : 返回评测机状态
@enduml

PlantUML version 1.2020.01(Mon Feb 17 01:40:32 CST 2020)
(GPL source distribution)
Java Runtime: OpenJDK Runtime Environment
JVM: OpenJDK 64-Bit Server VM
Java Version: 14+36-1461
Operating System: Windows 10
Default Encoding: UTF8
Language: zh
Country: CN
--></g></svg>