<?xml version="1.0" encoding="UTF-8" standalone="no"?><svg xmlns="http://www.w3.org/2000/svg" xmlns:xlink="http://www.w3.org/1999/xlink" contentScriptType="application/ecmascript" contentStyleType="text/css" height="550px" preserveAspectRatio="none" style="width:728px;height:550px;" version="1.1" viewBox="0 0 728 550" width="728px" zoomAndPan="magnify"><defs><filter height="300%" id="f11ocov6iu19z3" width="300%" x="-1" y="-1"><feGaussianBlur result="blurOut" stdDeviation="2.0"/><feColorMatrix in="blurOut" result="blurOut2" type="matrix" values="0 0 0 0 0 0 0 0 0 0 0 0 0 0 0 0 0 0 .4 0"/><feOffset dx="4.0" dy="4.0" in="blurOut2" result="blurOut3"/><feBlend in="SourceGraphic" in2="blurOut3" mode="normal"/></filter></defs><g><!--MD5=[b7644b9573c45382878433dc7f796b88]
cluster judger--><polygon fill="#FFFFFF" filter="url(#f11ocov6iu19z3)" points="299.207,194,309.207,184,647.207,184,647.207,528,637.207,538,299.207,538,299.207,194" style="stroke: #000000; stroke-width: 1.5;"/><line style="stroke: #000000; stroke-width: 1.5;" x1="637.207" x2="646.207" y1="194" y2="185"/><line style="stroke: #000000; stroke-width: 1.5;" x1="299.207" x2="637.207" y1="194" y2="194"/><line style="stroke: #000000; stroke-width: 1.5;" x1="637.207" x2="637.207" y1="194" y2="538"/><text fill="#000000" font-family="sans-serif" font-size="14" font-weight="bold" lengthAdjust="spacingAndGlyphs" textLength="42" x="448.207" y="211.5332">评测机</text><!--MD5=[0d482ad21d5c7c11aa976e45da5ecfe6]
entity core--><rect fill="#FEFECE" filter="url(#f11ocov6iu19z3)" height="37.6094" style="stroke: #A80036; stroke-width: 1.5;" width="76" x="463.207" y="225"/><text fill="#000000" font-family="sans-serif" font-size="14" lengthAdjust="spacingAndGlyphs" textLength="56" x="473.207" y="249.5332">评测内核</text><!--MD5=[9b5d37bdb7be2cac1b39a82444f5f5a6]
entity ctrl--><ellipse cx="364.207" cy="363" fill="#FEFECE" filter="url(#f11ocov6iu19z3)" rx="12" ry="12" style="stroke: #A80036; stroke-width: 2.0;"/><polygon fill="#A80036" points="360.207,351,366.207,346,364.207,351,366.207,356,360.207,351" style="stroke: #A80036; stroke-width: 1.0;"/><text fill="#000000" font-family="sans-serif" font-size="14" lengthAdjust="spacingAndGlyphs" textLength="98" x="315.207" y="393.5332">评测机内部调度</text><!--MD5=[0190e7121e4a91e20aef24382cfb9b38]
entity que--><path d="M320.207,230 L386.207,230 C391.207,230 391.207,243.8047 391.207,243.8047 C391.207,243.8047 391.207,257.6094 386.207,257.6094 L320.207,257.6094 C315.207,257.6094 315.207,243.8047 315.207,243.8047 C315.207,243.8047 315.207,230 320.207,230 " fill="#FEFECE" filter="url(#f11ocov6iu19z3)" style="stroke: #A80036; stroke-width: 1.5;"/><path d="M386.207,230 C381.207,230 381.207,243.8047 381.207,243.8047 C381.207,257.6094 386.207,257.6094 386.207,257.6094 " fill="none" style="stroke: #A80036; stroke-width: 1.5;"/><text fill="#000000" font-family="sans-serif" font-size="14" lengthAdjust="spacingAndGlyphs" textLength="56" x="320.207" y="249.5332">评测队列</text><!--MD5=[3df74d0e0ef6e3d4152e0268750447c9]
entity rd--><path d="M322.207,485 C322.207,475 364.207,475 364.207,475 C364.207,475 406.207,475 406.207,485 L406.207,511.6094 C406.207,521.6094 364.207,521.6094 364.207,521.6094 C364.207,521.6094 322.207,521.6094 322.207,511.6094 L322.207,485 " fill="#FEFECE" filter="url(#f11ocov6iu19z3)" style="stroke: #000000; stroke-width: 1.5;"/><path d="M322.207,485 C322.207,495 364.207,495 364.207,495 C364.207,495 406.207,495 406.207,485 " fill="none" style="stroke: #000000; stroke-width: 1.5;"/><text fill="#000000" font-family="sans-serif" font-size="14" lengthAdjust="spacingAndGlyphs" textLength="64" x="332.207" y="513.5332">Redis缓存</text><!--MD5=[f8a0261233c543b6d9c1a0a6ff04ac89]
entity jb--><path d="M149.707,223 L149.707,247 M149.707,235 L166.707,235 " fill="none" filter="url(#f11ocov6iu19z3)" style="stroke: #A80036; stroke-width: 2.0;"/><ellipse cx="178.707" cy="235" fill="#FEFECE" filter="url(#f11ocov6iu19z3)" rx="12" ry="12" style="stroke: #A80036; stroke-width: 2.0;"/><text fill="#000000" font-family="sans-serif" font-size="14" lengthAdjust="spacingAndGlyphs" textLength="70" x="135.207" y="265.5332">评测控制端</text><!--MD5=[fd7812b5a8b223ec3b022b3e68fe4599]
entity oss--><path d="M633.707,12 L633.707,36 M633.707,24 L650.707,24 " fill="none" filter="url(#f11ocov6iu19z3)" style="stroke: #A80036; stroke-width: 2.0;"/><ellipse cx="662.707" cy="24" fill="#FEFECE" filter="url(#f11ocov6iu19z3)" rx="12" ry="12" style="stroke: #A80036; stroke-width: 2.0;"/><text fill="#000000" font-family="sans-serif" font-size="14" lengthAdjust="spacingAndGlyphs" textLength="84" x="612.207" y="54.5332">题目数据存储</text><!--MD5=[182830419f424c18c189a82a72edf8cc]
link jb to que--><path d="M205.492,244 C235.364,244 278.288,244 310.173,244 " fill="none" id="jb-&gt;que" style="stroke: #A80036; stroke-width: 1.0;"/><polygon fill="#A80036" points="315.192,244,306.192,240,310.192,244,306.192,248,315.192,244" style="stroke: #A80036; stroke-width: 1.0;"/><text fill="#000000" font-family="sans-serif" font-size="13" lengthAdjust="spacingAndGlyphs" textLength="52" x="234.207" y="237.4951">评测任务</text><!--MD5=[fe55479d0ca2df58ce0b8bd4827cb245]
link que to ctrl--><path d="M350.28,258.071 C347.465,272.547 344.063,296.544 347.207,317 C348.481,325.286 350.793,334.045 353.31,342.043 " fill="none" id="que-&gt;ctrl" style="stroke: #A80036; stroke-width: 1.0;"/><polygon fill="#A80036" points="354.897,346.913,355.9103,337.1164,353.3472,342.1593,348.3043,339.5961,354.897,346.913" style="stroke: #A80036; stroke-width: 1.0;"/><text fill="#000000" font-family="sans-serif" font-size="13" lengthAdjust="spacingAndGlyphs" textLength="52" x="348.207" y="313.4951">评测任务</text><!--MD5=[733e940f4a0395f177871be78a4d0c43]
link jb to ctrl--><path d="M134.856,248.587 C78.4082,255.656 -22.2007,274.544 14.2073,317 C51.634,360.644 221.179,369.34 309.825,370.857 " fill="none" id="jb-&gt;ctrl" style="stroke: #A80036; stroke-width: 1.0;"/><polygon fill="#A80036" points="315.024,370.939,306.0891,366.7955,310.0246,370.859,305.9612,374.7945,315.024,370.939" style="stroke: #A80036; stroke-width: 1.0;"/><text fill="#000000" font-family="sans-serif" font-size="13" lengthAdjust="spacingAndGlyphs" textLength="90" x="15.2073" y="313.4951">评测数据或URL</text><!--MD5=[deecf3f9f75de94d8801a7882e1102da]
link ctrl to jb--><path d="M315.115,365.809 C257.382,358.573 166.782,343.293 146.207,317 C136.505,304.601 141.089,288.09 148.736,274.007 " fill="none" id="ctrl-&gt;jb" style="stroke: #A80036; stroke-width: 1.0;"/><polygon fill="#A80036" points="151.431,269.334,143.4705,275.1332,148.9337,273.6657,150.4012,279.1289,151.431,269.334" style="stroke: #A80036; stroke-width: 1.0;"/><text fill="#000000" font-family="sans-serif" font-size="13" lengthAdjust="spacingAndGlyphs" textLength="65" x="147.207" y="313.4951">评测机状态</text><!--MD5=[deecf3f9f75de94d8801a7882e1102da]
link ctrl to jb--><path d="M327.024,346.85 C293.448,325.043 244.189,293.05 209.869,270.76 " fill="none" id="ctrl-&gt;jb-1" style="stroke: #A80036; stroke-width: 1.0;"/><polygon fill="#A80036" points="205.339,267.818,210.7078,276.0749,209.5321,270.5415,215.0655,269.3659,205.339,267.818" style="stroke: #A80036; stroke-width: 1.0;"/><text fill="#000000" font-family="sans-serif" font-size="13" lengthAdjust="spacingAndGlyphs" textLength="52" x="280.207" y="313.4951">评测结果</text><!--MD5=[69b1c2773d0fab5a62823c5e7a64de19]
link oss to ctrl--><path d="M658.278,58.32 C665.864,112.633 675.711,244.686 607.207,317 C581.84,343.778 482.259,358.854 418.715,365.928 " fill="none" id="oss-&gt;ctrl" style="stroke: #A80036; stroke-width: 1.0;"/><polygon fill="#A80036" points="413.443,366.506,422.825,369.5025,418.4133,365.9617,421.9541,361.55,413.443,366.506" style="stroke: #A80036; stroke-width: 1.0;"/><text fill="#000000" font-family="sans-serif" font-size="13" lengthAdjust="spacingAndGlyphs" textLength="52" x="664.207" y="164.4951">评测数据</text><!--MD5=[0be43827674a0dd8310e4772f212f184]
link ctrl to rd--><path d="M364.207,402.178 C364.207,422.54 364.207,449.554 364.207,469.6233 " fill="none" id="ctrl-rd" style="stroke: #A80036; stroke-width: 1.0;"/><polygon fill="#A80036" points="364.207,474.8276,368.207,465.8276,364.207,469.8276,360.207,465.8276,364.207,474.8276" style="stroke: #A80036; stroke-width: 1.0;"/><polygon fill="#A80036" points="364.207,397.005,360.207,406.005,364.207,402.005,368.207,406.005,364.207,397.005" style="stroke: #A80036; stroke-width: 1.0;"/><text fill="#000000" font-family="sans-serif" font-size="13" lengthAdjust="spacingAndGlyphs" textLength="78" x="365.207" y="441.4951">评测数据缓存</text><!--MD5=[88a9c1b19dbc2e2d418da176385773cb]
link ctrl to core--><path d="M413.445,364.873 C443.506,358.339 479.784,344.847 499.207,317 C508.976,302.993 508.892,283.442 506.687,268.247 " fill="none" id="ctrl-&gt;core" style="stroke: #A80036; stroke-width: 1.0;"/><polygon fill="#A80036" points="505.869,263.275,503.3855,272.8056,506.682,268.2085,511.2791,271.5049,505.869,263.275" style="stroke: #A80036; stroke-width: 1.0;"/><text fill="#000000" font-family="sans-serif" font-size="13" lengthAdjust="spacingAndGlyphs" textLength="91" x="507.207" y="313.4951">评测任务和数据</text><!--MD5=[d27d648a9c270fa0a3a00e2c8e9fa2d1]
link core to ctrl--><path d="M478.925,263.081 C466.454,273.379 450.738,286.653 437.207,299 C421.702,313.148 404.994,329.538 391.479,343.103 " fill="none" id="core-&gt;ctrl" style="stroke: #A80036; stroke-width: 1.0;"/><polygon fill="#A80036" points="387.756,346.85,396.9376,343.2866,391.2808,343.3038,391.2637,337.6469,387.756,346.85" style="stroke: #A80036; stroke-width: 1.0;"/><text fill="#000000" font-family="sans-serif" font-size="13" lengthAdjust="spacingAndGlyphs" textLength="52" x="438.207" y="313.4951">评测结果</text><!--MD5=[8a33494348286097e06d1adedcf8efac]
@startuml
boundary 评测控制端 as jb
boundary "题目数据存储" as oss
node "评测机" as judger {
  agent 评测内核 as core
  control 评测机内部调度 as ctrl
  queue 评测队列 as que
  database Redis缓存 as rd
}
jb - -> que : 评测任务
que - -> ctrl : 评测任务
jb - -> ctrl : 评测数据或URL
oss - - - -> ctrl : 评测数据
ctrl <- -> rd : 评测数据缓存
ctrl - -> core : 评测任务和数据
core - -> ctrl : 评测结果
ctrl - -> jb : 评测机状态
ctrl - -> jb : 评测结果
@enduml

PlantUML version 1.2020.01(Mon Feb 17 01:40:32 CST 2020)
(GPL source distribution)
Java Runtime: OpenJDK Runtime Environment
JVM: OpenJDK 64-Bit Server VM
Java Version: 14+36-1461
Operating System: Windows 10
Default Encoding: UTF8
Language: zh
Country: CN
--></g></svg>