<?xml version="1.0" encoding="UTF-8" standalone="no"?><svg xmlns="http://www.w3.org/2000/svg" xmlns:xlink="http://www.w3.org/1999/xlink" contentScriptType="application/ecmascript" contentStyleType="text/css" height="309px" preserveAspectRatio="none" style="width:291px;height:309px;" version="1.1" viewBox="0 0 291 309" width="291px" zoomAndPan="magnify"><defs><filter height="300%" id="fdqjkl2586f6j" width="300%" x="-1" y="-1"><feGaussianBlur result="blurOut" stdDeviation="2.0"/><feColorMatrix in="blurOut" result="blurOut2" type="matrix" values="0 0 0 0 0 0 0 0 0 0 0 0 0 0 0 0 0 0 .4 0"/><feOffset dx="4.0" dy="4.0" in="blurOut2" result="blurOut3"/><feBlend in="SourceGraphic" in2="blurOut3" mode="normal"/></filter></defs><g><rect fill="#FFFFFF" filter="url(#fdqjkl2586f6j)" height="99.4063" style="stroke: #000000; stroke-width: 2.0;" width="266" x="13" y="104.6094"/><line style="stroke: #A80036; stroke-width: 1.0; stroke-dasharray: 5.0,5.0;" x1="47" x2="47" y1="87.6094" y2="221.0156"/><line style="stroke: #A80036; stroke-width: 1.0; stroke-dasharray: 5.0,5.0;" x1="119" x2="119" y1="87.6094" y2="221.0156"/><line style="stroke: #A80036; stroke-width: 1.0; stroke-dasharray: 5.0,5.0;" x1="212" x2="212" y1="87.6094" y2="221.0156"/><text fill="#000000" font-family="sans-serif" font-size="14" lengthAdjust="spacingAndGlyphs" textLength="42" x="23" y="84.5332">评测机</text><ellipse cx="47" cy="13" fill="#FEFECE" filter="url(#fdqjkl2586f6j)" rx="8" ry="8" style="stroke: #A80036; stroke-width: 2.0;"/><path d="M47,21 L47,48 M34,29 L60,29 M47,48 L34,63 M47,48 L60,63 " fill="none" filter="url(#fdqjkl2586f6j)" style="stroke: #A80036; stroke-width: 2.0;"/><text fill="#000000" font-family="sans-serif" font-size="14" lengthAdjust="spacingAndGlyphs" textLength="42" x="23" y="234.5488">评测机</text><ellipse cx="47" cy="247.625" fill="#FEFECE" filter="url(#fdqjkl2586f6j)" rx="8" ry="8" style="stroke: #A80036; stroke-width: 2.0;"/><path d="M47,255.625 L47,282.625 M34,263.625 L60,263.625 M47,282.625 L34,297.625 M47,282.625 L60,297.625 " fill="none" filter="url(#fdqjkl2586f6j)" style="stroke: #A80036; stroke-width: 2.0;"/><text fill="#000000" font-family="sans-serif" font-size="14" lengthAdjust="spacingAndGlyphs" textLength="70" x="81" y="84.5332">评测机缓存</text><path d="M101,34 C101,24 119,24 119,24 C119,24 137,24 137,34 L137,60 C137,70 119,70 119,70 C119,70 101,70 101,60 L101,34 " fill="#FEFECE" filter="url(#fdqjkl2586f6j)" style="stroke: #000000; stroke-width: 1.5;"/><path d="M101,34 C101,44 119,44 119,44 C119,44 137,44 137,34 " fill="none" style="stroke: #000000; stroke-width: 1.5;"/><text fill="#000000" font-family="sans-serif" font-size="14" lengthAdjust="spacingAndGlyphs" textLength="70" x="81" y="234.5488">评测机缓存</text><path d="M101,247.625 C101,237.625 119,237.625 119,237.625 C119,237.625 137,237.625 137,247.625 L137,273.625 C137,283.625 119,283.625 119,283.625 C119,283.625 101,283.625 101,273.625 L101,247.625 " fill="#FEFECE" filter="url(#fdqjkl2586f6j)" style="stroke: #000000; stroke-width: 1.5;"/><path d="M101,247.625 C101,257.625 119,257.625 119,257.625 C119,257.625 137,257.625 137,247.625 " fill="none" style="stroke: #000000; stroke-width: 1.5;"/><text fill="#000000" font-family="sans-serif" font-size="14" lengthAdjust="spacingAndGlyphs" textLength="84" x="167" y="84.5332">评测机控制端</text><ellipse cx="212" cy="54" fill="#FEFECE" filter="url(#fdqjkl2586f6j)" rx="12" ry="12" style="stroke: #A80036; stroke-width: 2.0;"/><polygon fill="#A80036" points="208,42,214,37,212,42,214,47,208,42" style="stroke: #A80036; stroke-width: 1.0;"/><text fill="#000000" font-family="sans-serif" font-size="14" lengthAdjust="spacingAndGlyphs" textLength="84" x="167" y="234.5488">评测机控制端</text><ellipse cx="212" cy="253.625" fill="#FEFECE" filter="url(#fdqjkl2586f6j)" rx="12" ry="12" style="stroke: #A80036; stroke-width: 2.0;"/><polygon fill="#A80036" points="208,241.625,214,236.625,212,241.625,214,246.625,208,241.625" style="stroke: #A80036; stroke-width: 1.0;"/><path d="M13,104.6094 L86,104.6094 L86,112.6094 L76,122.6094 L13,122.6094 L13,104.6094 " fill="#EEEEEE" style="stroke: #000000; stroke-width: 1.0;"/><rect fill="none" height="99.4063" style="stroke: #000000; stroke-width: 2.0;" width="266" x="13" y="104.6094"/><text fill="#000000" font-family="sans-serif" font-size="13" font-weight="bold" lengthAdjust="spacingAndGlyphs" textLength="28" x="28" y="119.1045">loop</text><text fill="#000000" font-family="sans-serif" font-size="11" font-weight="bold" lengthAdjust="spacingAndGlyphs" textLength="61" x="101" y="118.0283">[HeartBeat]</text><polygon fill="#A80036" points="200,141.3125,210,145.3125,200,149.3125,204,145.3125" style="stroke: #A80036; stroke-width: 1.0;"/><line style="stroke: #A80036; stroke-width: 1.0; stroke-dasharray: 2.0,2.0;" x1="47" x2="206" y1="145.3125" y2="145.3125"/><text fill="#000000" font-family="sans-serif" font-size="13" lengthAdjust="spacingAndGlyphs" textLength="52" x="54" y="140.4561">报告状态</text><polygon fill="#FBFB77" filter="url(#fdqjkl2586f6j)" points="164,158.3125,259,158.3125,269,178.3125,259,198.3125,164,198.3125,154,178.3125,164,158.3125" style="stroke: #A80036; stroke-width: 1.0;"/><text fill="#000000" font-family="sans-serif" font-size="13" lengthAdjust="spacingAndGlyphs" textLength="91" x="166" y="175.8076">记录评测机状态</text><text fill="#000000" font-family="sans-serif" font-size="13" lengthAdjust="spacingAndGlyphs" textLength="91" x="166" y="192.1592">并更新心跳计时</text><!--MD5=[4bbcdd7721353f1c1f58fdac4a850139]
@startuml
scale 1
actor "评测机" as j
database "评测机缓存" as jb
control "评测机控制端" as b
loop HeartBeat
j - -> b : 报告状态
hnote over b : 记录评测机状态\n并更新心跳计时
end
@enduml

PlantUML version 1.2020.01(Mon Feb 17 01:40:32 CST 2020)
(GPL source distribution)
Java Runtime: OpenJDK Runtime Environment
JVM: OpenJDK 64-Bit Server VM
Java Version: 14+36-1461
Operating System: Windows 10
Default Encoding: UTF8
Language: zh
Country: CN
--></g></svg>